#!OML:ASF E:\motion texture\Top Level 1\Subject 1\Session 1\male.ASF
:FULLY-SPECIFIED
:DEGREES
334
root -16.9763 18.4494 4.8823 449.524 -83.6971 -445.066
lowerback -1.12866 -0.412763 5.42782
upperback -8.71031 -0.409948 8.4685
thorax -8.5838 -0.478536 6.09378
lowerneck -17.0468 -6.41604 -5.26981
upperneck 11.2967 -9.3265 11.1232
head 7.05118 -3.83758 3.39934
rclavicle 5.56597e-015 -3.33958e-014
rhumerus 55.9605 -27.484 -13.8448
rradius 42.2777
rwrist -9.80868
rhand 0.42019 -17.2336
rfingers 7.12502
rthumb 25.9928 -45.4759
lclavicle 5.56597e-015 -3.33958e-014
lhumerus 43.8874 34.1507 8.74404
lradius 30.6406
lwrist 11.5791
lhand -1.69821 17.9481
lfingers 7.12502
lthumb 23.9628 46.4726
rfemur -10.7526 0.86928 26.1186
rtibia 15.7133
rfoot -5.05574 -13.1291
rtoes 17.4668
lfemur -13.0046 -3.71979 -10.9469
ltibia 56.715
lfoot 1.28584 -1.09754
ltoes -12.4216
335
root -17.1522 18.4798 4.85829 448.835 -83.725 -444.332
lowerback -1.02975 -0.385274 5.53976
upperback -8.80692 -0.354067 8.4633
thorax -8.75571 -0.461092 6.03367
lowerneck -17.0641 -6.50982 -5.39123
upperneck 10.9504 -9.42761 11.3508
head 6.9702 -3.88256 3.47993
rclavicle 0 -3.18055e-015
rhumerus 59.0447 -29.928 -16.2991
rradius 40.8155
rwrist -8.95547
rhand 0.620395 -17.1642
rfingers 7.12502
rthumb 26.1845 -45.3783
lclavicle 0 -3.18055e-015
lhumerus 46.9965 37.9735 12.4153
lradius 29.6651
lwrist 10.98
lhand -1.54999 17.4936
lfingers 7.12502
lthumb 24.1049 45.9994
rfemur -9.85798 0.886079 26.1891
rtibia 15.1591
rfoot -5.30843 -13.2223
rtoes 17.2254
lfemur -13.7621 -3.42914 -10.9177
ltibia 56.7031
lfoot 0.758082 -0.648122
ltoes -12.6191
336
root -17.3257 18.5081 4.83521 448.566 -83.7405 -444.011
lowerback -0.9051 -0.338721 5.67699
upperback -8.89397 -0.268871 8.45079
thorax -8.93445 -0.431461 5.94962
lowerneck -17.0707 -6.61279 -5.5226
upperneck 10.5491 -9.5407 11.6231
head 6.87464 -3.93278 3.57529
rclavicle -3.53837e-014 9.85972e-014
rhumerus 62.3225 -32.2138 -19.1053
rradius 39.4943
rwrist -7.98553
rhand 0.716406 -17.0436
rfingers 7.12502
rthumb 26.2764 -45.2439
lclavicle -3.53837e-014 9.85972e-014
lhumerus 50.4036 41.4535 16.2325
lradius 28.8289
lwrist 10.5642
lhand -1.26897 17.0711
lfingers 7.12502
lthumb 24.3744 45.541
rfemur -9.00969 0.923493 26.2837
rtibia 14.6459
rfoot -5.54119 -13.3094
rtoes 16.9393
lfemur -14.4964 -3.08315 -10.8742
ltibia 56.5614
lfoot 0.118484 -0.238478
ltoes -12.9769
337
root -17.4969 18.5342 4.81303 448.628 -83.7409 -444.015
lowerback -0.75894 -0.276204 5.84223
upperback -8.96546 -0.158865 8.4287
thorax -9.11021 -0.392147 5.83695
lowerneck -17.0755 -6.72735 -5.65075
upperneck 10.0831 -9.66962 11.936
head 6.76276 -3.99019 3.68127
rclavicle 1.63003e-014 -7.63333e-014
rhumerus 65.7448 -34.3199 -22.1832
rradius 38.3472
rwrist -7.02308
rhand 0.713888 -16.9316
rfingers 7.12502
rthumb 26.274 -45.1323
lclavicle 1.63003e-014 -7.63333e-014
lhumerus 54.0041 44.5482 20.0606
lradius 28.0974
lwrist 10.2001
lhand -0.924174 16.7441
lfingers 7.12502
lthumb 24.7049 45.1691
rfemur -8.20513 0.975828 26.4043
rtibia 14.1761
rfoot -5.75601 -13.397
rtoes 16.611
lfemur -15.2072 -2.69286 -10.8147
ltibia 56.2914
lfoot -0.671687 0.124382
ltoes -13.44
338
root -17.6653 18.5578 4.79154 448.86 -83.728 -444.178
lowerback -0.588629 -0.205931 6.02638
upperback -9.0307 -0.0343459 8.39864
thorax -9.29398 -0.347707 5.70384
lowerneck -17.0612 -6.84654 -5.77674
upperneck 9.55359 -9.80439 12.287
head 6.63138 -4.0513 3.79883
rclavicle -2.54444e-014 7.79236e-014
rhumerus 69.2451 -36.228 -25.4014
rradius 37.3773
rwrist -6.18083
rhand 0.598675 -16.8268
rfingers 7.12502
rthumb 26.1637 -45.0439
lclavicle -2.54444e-014 7.79236e-014
lhumerus 57.5702 47.2328 23.6466
lradius 27.4584
lwrist 9.81095
lhand -0.600709 16.5294
lfingers 7.12502
lthumb 25.0149 44.9116
rfemur -7.44733 1.04138 26.5475
rtibia 13.7453
rfoot -5.95244 -13.503
rtoes 16.2273
lfemur -15.909 -2.2751 -10.7438
ltibia 55.899
lfoot -1.57911 0.426949
ltoes -13.9093
339
root -17.8311 18.579 4.77073 449.166 -83.7021 -444.408
lowerback -0.390976 -0.133408 6.22634
upperback -9.0914 0.0979766 8.36102
thorax -9.48902 -0.301283 5.55303
lowerneck -17.0171 -6.96829 -5.8985
upperneck 8.94722 -9.94081 12.6752
head 6.47433 -4.11543 3.92822
rclavicle 7.95139e-015 -9.54166e-015
rhumerus 72.7836 -37.9378 -28.6955
rradius 36.5792
rwrist -5.49974
rhand 0.438534 -16.7389
rfingers 7.12502
rthumb 26.0103 -44.9786
lclavicle 7.95139e-015 -9.54166e-015
lhumerus 61.0315 49.5637 26.9514
lradius 26.8691
lwrist 9.19325
lhand -0.379167 16.3688
lfingers 7.12502
lthumb 25.2271 44.7213
rfemur -6.72985 1.11228 26.7104
rtibia 13.3521
rfoot -6.13073 -13.6299
rtoes 15.7873
lfemur -16.599 -1.84736 -10.6656
ltibia 55.3835
lfoot -2.56546 0.679389
ltoes -14.3199
340
root -17.9944 18.5979 4.75068 449.43 -83.6636 -444.593
lowerback -0.165195 -0.064564 6.43758
upperback -9.15148 0.23057 8.3189
thorax -9.69984 -0.256294 5.39123
lowerneck -16.9365 -7.08721 -6.00584
upperneck 8.27244 -10.0707 13.0792
head 6.29098 -4.18039 4.06209
rclavicle 1.98785e-014 -7.63333e-014
rhumerus 76.3122 -39.4577 -31.9694
rradius 35.9249
rwrist -5.00339
rhand 0.260931 -16.6573
rfingers 7.12502
rthumb 25.8403 -44.922
lclavicle 1.98785e-014 -7.63333e-014
lhumerus 64.1781 51.5796 29.7818
lradius 26.332
lwrist 8.33203
lhand -0.294782 16.2231
lfingers 7.12502
lthumb 25.308 44.5641
rfemur -6.04033 1.18238 26.8898
rtibia 12.9854
rfoot -6.29115 -13.7849
rtoes 15.305
lfemur -17.2748 -1.42967 -10.586
ltibia 54.7469
lfoot -3.57457 0.900781
ltoes -14.6821
341
root -18.1554 18.6148 4.73129 449.61 -83.612 -444.695
lowerback 0.0951053 -0.00236929 6.65953
upperback -9.21945 0.360922 8.27254
thorax -9.93998 -0.214256 5.22012
lowerneck -16.8107 -7.19687 -6.10523
upperneck 7.54608 -10.1861 13.5011
head 6.08514 -4.24264 4.20344
rclavicle 6.36111e-015 -2.38542e-014
rhumerus 79.8086 -40.7938 -35.1893
rradius 35.3771
rwrist -4.64916
rhand 0.112221 -16.5832
rfingers 7.12502
rthumb 25.6979 -44.8685
lclavicle 6.36111e-015 -2.38542e-014
lhumerus 66.8978 53.3326 32.063
lradius 25.8442
lwrist 7.21137
lhand -0.31089 16.0606
lfingers 7.12502
lthumb 25.2926 44.4038
rfemur -5.36463 1.26134 27.0862
rtibia 12.6324
rfoot -6.43688 -13.9769
rtoes 14.7886
lfemur -17.9275 -1.03416 -10.506
ltibia 53.9897
lfoot -4.57396 1.12401
ltoes -14.9435
342
root -18.3139 18.6299 4.7127 449.629 -83.5532 -444.639
lowerback 0.377206 0.0512877 6.88669
upperback -9.29175 0.484753 8.22154
thorax -10.1977 -0.176849 5.04189
lowerneck -16.6526 -7.29358 -6.20966
upperneck 6.78704 -10.2813 13.9476
head 5.8657 -4.29863 4.35689
rclavicle -7.15625e-015 3.49861e-014
rhumerus 83.2758 -41.963 -38.3603
rradius 34.9044
rwrist -4.30985
rhand 0.00595519 -16.488
rfingers 7.12502
rthumb 25.5961 -44.7879
lclavicle -7.15625e-015 3.49861e-014
lhumerus 69.1368 54.8915 33.7808
lradius 25.4137
lwrist 5.91567
lhand -0.298534 15.8686
lfingers 7.12502
lthumb 25.3044 44.2101
rfemur -4.70181 1.33918 27.2896
rtibia 12.2901
rfoot -6.57514 -14.2063
rtoes 14.2617
lfemur -18.5594 -0.676689 -10.4368
ltibia 53.118
lfoot -5.54132 1.36931
ltoes -15.1849
343
root -18.4708 18.6436 4.6949 449.51 -83.487 -444.453
lowerback 0.678257 0.0999839 7.11903
upperback -9.36671 0.606602 8.16542
thorax -10.4699 -0.141921 4.85541
lowerneck -16.4932 -7.37809 -6.3156
upperneck 6.02582 -10.3586 14.4078
head 5.64667 -4.34789 4.51735
rclavicle 1.86858e-014 -8.90555e-014
rhumerus 86.7046 -42.9752 -41.4833
rradius 34.4896
rwrist -3.93465
rhand -0.052123 -16.373
rfingers 7.12502
rthumb 25.5404 -44.6809
lclavicle 1.86858e-014 -8.90555e-014
lhumerus 70.8479 56.3001 34.918
lradius 25.0537
lwrist 4.57252
lhand -0.281083 15.6363
lfingers 7.12502
lthumb 25.3211 43.9755
rfemur -4.0414 1.41327 27.4991
rtibia 11.9517
rfoot -6.7054 -14.4632
rtoes 13.7178
lfemur -19.1568 -0.3606 -10.3784
ltibia 52.1293
lfoot -6.45387 1.64619
ltoes -15.371
344
root -18.6266 18.6562 4.67801 449.367 -83.414 -444.248
lowerback 0.993753 0.147665 7.35723
upperback -9.451 0.731522 8.10579
thorax -10.7617 -0.107453 4.662
lowerneck -16.3248 -7.45057 -6.40809
upperneck 5.28677 -10.4196 14.8479
head 5.43128 -4.39207 4.6715
rclavicle -1.27222e-014 2.54444e-014
rhumerus 90.058 -43.827 -44.5299
rradius 34.1213
rwrist -3.46545
rhand -0.0615443 -16.2445
rfingers 7.12502
rthumb 25.5314 -44.5537
lclavicle -1.27222e-014 2.54444e-014
lhumerus 71.9056 57.5825 35.3774
lradius 24.7894
lwrist 3.36884
lhand -0.181832 15.3989
lfingers 7.12502
lthumb 25.4162 43.7245
rfemur -3.3858 1.48982 27.7143
rtibia 11.6183
rfoot -6.82241 -14.7367
rtoes 13.1308
lfemur -19.7103 -0.0781984 -10.3288
ltibia 51.0196
lfoot -7.29833 1.96758
ltoes -15.5443
345
root -18.7822 18.6682 4.66222 449.232 -83.3375 -444.053
lowerback 1.30555 0.197873 7.59756
upperback -9.54014 0.861385 8.04394
thorax -11.0572 -0.0721503 4.46393
lowerneck -16.1784 -7.51417 -6.47722
upperneck 4.59988 -10.4701 15.2439
head 5.23196 -4.43222 4.80859
rclavicle -1.59028e-014 8.11041e-014
rhumerus 93.3028 -44.5309 -47.4741
rradius 33.8035
rwrist -2.92491
rhand -0.0872678 -16.0831
rfingers 7.12502
rthumb 25.5068 -44.3958
lclavicle -1.59028e-014 8.11041e-014
lhumerus 72.577 58.7703 35.4821
lradius 24.5881
lwrist 2.26094
lhand 0.0277082 15.1362
lfingers 7.12502
lthumb 25.6169 43.4331
rfemur -2.73667 1.55286 27.9274
rtibia 11.2943
rfoot -6.92279 -15.0036
rtoes 12.4815
lfemur -20.2101 0.167262 -10.2906
ltibia 49.7792
lfoot -8.04991 2.32203
ltoes -15.6611
346
root -18.9378 18.6795 4.64744 449.115 -83.262 -443.869
lowerback 1.60469 0.250893 7.83045
upperback -9.64466 0.99511 7.98273
thorax -11.3633 -0.0360647 4.27039
lowerneck -16.0434 -7.56759 -6.52736
upperneck 3.97925 -10.509 15.5887
head 5.05041 -4.46754 4.92741
rclavicle -2.82274e-014 7.15625e-014
rhumerus 96.369 -45.1134 -50.223
rradius 33.5323
rwrist -2.39247
rhand -0.134768 -15.9339
rfingers 7.12502
rthumb 25.4613 -44.2532
lclavicle -2.82274e-014 7.15625e-014
lhumerus 72.8293 59.8655 35.2185
lradius 24.4595
lwrist 1.36315
lhand 0.274833 14.8724
lfingers 7.12502
lthumb 25.8536 43.1351
rfemur -2.10746 1.60285 28.1329
rtibia 10.9828
rfoot -7.00398 -15.2581
rtoes 11.7565
lfemur -20.6652 0.370265 -10.2645
ltibia 48.4095
lfoot -8.69926 2.6964
ltoes -15.7283
